<svg xmlns="http://www.w3.org/2000/svg" width="1024" height="1024" fill="none" viewBox="0 0 1024 1024" id="google-podcasts">
  <rect width="690" height="690" x="167" y="167" fill="#000" rx="100"></rect>
  <rect width="690" height="690" x="167" y="167" fill="url(#paint0_linear_37_1247)" fill-opacity=".7" rx="100"></rect>
  <g filter="url(#filter0_diii_37_1247)">
    <path fill="#FFB300" d="M517.625 377C502.089 377 489.5 364.411 489.5 348.875V315.125C489.5 299.589 502.089 287 517.625 287C533.161 287 545.75 299.589 545.75 315.125V348.875C545.75 364.411 533.161 377 517.625 377Z"></path>
    <path fill="url(#paint1_linear_37_1247)" d="M517.625 377C502.089 377 489.5 364.411 489.5 348.875V315.125C489.5 299.589 502.089 287 517.625 287C533.161 287 545.75 299.589 545.75 315.125V348.875C545.75 364.411 533.161 377 517.625 377Z"></path>
    <path fill="url(#paint2_linear_37_1247)" fill-opacity=".7" d="M517.625 377C502.089 377 489.5 364.411 489.5 348.875V315.125C489.5 299.589 502.089 287 517.625 287C533.161 287 545.75 299.589 545.75 315.125V348.875C545.75 364.411 533.161 377 517.625 377Z"></path>
  </g>
  <g filter="url(#filter1_diii_37_1247)">
    <path fill="#FFB300" d="M517.625 613.25C502.089 613.25 489.5 600.661 489.5 585.125V438.875C489.5 423.339 502.089 410.75 517.625 410.75C533.161 410.75 545.75 423.339 545.75 438.875V585.125C545.75 600.661 533.161 613.25 517.625 613.25Z"></path>
    <path fill="url(#paint3_linear_37_1247)" d="M517.625 613.25C502.089 613.25 489.5 600.661 489.5 585.125V438.875C489.5 423.339 502.089 410.75 517.625 410.75C533.161 410.75 545.75 423.339 545.75 438.875V585.125C545.75 600.661 533.161 613.25 517.625 613.25Z"></path>
    <path fill="url(#paint4_linear_37_1247)" fill-opacity=".7" d="M517.625 613.25C502.089 613.25 489.5 600.661 489.5 585.125V438.875C489.5 423.339 502.089 410.75 517.625 410.75C533.161 410.75 545.75 423.339 545.75 438.875V585.125C545.75 600.661 533.161 613.25 517.625 613.25Z"></path>
  </g>
  <g filter="url(#filter2_diii_37_1247)">
    <path fill="#FFB300" d="M517.625 737C502.089 737 489.5 724.411 489.5 708.875V675.125C489.5 659.589 502.089 647 517.625 647C533.161 647 545.75 659.589 545.75 675.125V708.875C545.75 724.411 533.161 737 517.625 737Z"></path>
    <path fill="url(#paint5_linear_37_1247)" d="M517.625 737C502.089 737 489.5 724.411 489.5 708.875V675.125C489.5 659.589 502.089 647 517.625 647C533.161 647 545.75 659.589 545.75 675.125V708.875C545.75 724.411 533.161 737 517.625 737Z"></path>
    <path fill="url(#paint6_linear_37_1247)" fill-opacity=".7" d="M517.625 737C502.089 737 489.5 724.411 489.5 708.875V675.125C489.5 659.589 502.089 647 517.625 647C533.161 647 545.75 659.589 545.75 675.125V708.875C545.75 724.411 533.161 737 517.625 737Z"></path>
  </g>
  <g filter="url(#filter3_diii_37_1247)">
    <path fill="#FF002B" d="M416.375 647C400.839 647 388.25 634.411 388.25 618.875V585.125C388.25 569.589 400.839 557 416.375 557C431.911 557 444.5 569.589 444.5 585.125V618.875C444.5 634.411 431.911 647 416.375 647Z"></path>
    <path fill="url(#paint7_linear_37_1247)" d="M416.375 647C400.839 647 388.25 634.411 388.25 618.875V585.125C388.25 569.589 400.839 557 416.375 557C431.911 557 444.5 569.589 444.5 585.125V618.875C444.5 634.411 431.911 647 416.375 647Z"></path>
    <path fill="url(#paint8_linear_37_1247)" fill-opacity=".7" d="M416.375 647C400.839 647 388.25 634.411 388.25 618.875V585.125C388.25 569.589 400.839 557 416.375 557C431.911 557 444.5 569.589 444.5 585.125V618.875C444.5 634.411 431.911 647 416.375 647Z"></path>
  </g>
  <g filter="url(#filter4_diii_37_1247)">
    <path fill="#1AD54E" d="M618.875 467C603.339 467 590.75 454.411 590.75 438.875V405.125C590.75 389.589 603.339 377 618.875 377C634.411 377 647 389.589 647 405.125V438.875C647 454.411 634.411 467 618.875 467Z"></path>
    <path fill="url(#paint9_linear_37_1247)" d="M618.875 467C603.339 467 590.75 454.411 590.75 438.875V405.125C590.75 389.589 603.339 377 618.875 377C634.411 377 647 389.589 647 405.125V438.875C647 454.411 634.411 467 618.875 467Z"></path>
    <path fill="url(#paint10_linear_37_1247)" fill-opacity=".7" d="M618.875 467C603.339 467 590.75 454.411 590.75 438.875V405.125C590.75 389.589 603.339 377 618.875 377C634.411 377 647 389.589 647 405.125V438.875C647 454.411 634.411 467 618.875 467Z"></path>
  </g>
  <g filter="url(#filter5_diii_37_1247)">
    <path fill="#FF002B" d="M416.375 523.25C400.839 523.25 388.25 510.661 388.25 495.125V393.875C388.25 378.339 400.839 365.75 416.375 365.75C431.911 365.75 444.5 378.339 444.5 393.875V495.125C444.5 510.661 431.911 523.25 416.375 523.25Z"></path>
    <path fill="url(#paint11_linear_37_1247)" d="M416.375 523.25C400.839 523.25 388.25 510.661 388.25 495.125V393.875C388.25 378.339 400.839 365.75 416.375 365.75C431.911 365.75 444.5 378.339 444.5 393.875V495.125C444.5 510.661 431.911 523.25 416.375 523.25Z"></path>
    <path fill="url(#paint12_linear_37_1247)" fill-opacity=".7" d="M416.375 523.25C400.839 523.25 388.25 510.661 388.25 495.125V393.875C388.25 378.339 400.839 365.75 416.375 365.75C431.911 365.75 444.5 378.339 444.5 393.875V495.125C444.5 510.661 431.911 523.25 416.375 523.25Z"></path>
  </g>
  <g filter="url(#filter6_diii_37_1247)">
    <path fill="#1AD54E" d="M618.875 658.25C603.339 658.25 590.75 645.661 590.75 630.125V528.875C590.75 513.339 603.339 500.75 618.875 500.75C634.411 500.75 647 513.339 647 528.875V630.125C647 645.661 634.411 658.25 618.875 658.25Z"></path>
    <path fill="url(#paint13_linear_37_1247)" d="M618.875 658.25C603.339 658.25 590.75 645.661 590.75 630.125V528.875C590.75 513.339 603.339 500.75 618.875 500.75C634.411 500.75 647 513.339 647 528.875V630.125C647 645.661 634.411 658.25 618.875 658.25Z"></path>
    <path fill="url(#paint14_linear_37_1247)" fill-opacity=".7" d="M618.875 658.25C603.339 658.25 590.75 645.661 590.75 630.125V528.875C590.75 513.339 603.339 500.75 618.875 500.75C634.411 500.75 647 513.339 647 528.875V630.125C647 645.661 634.411 658.25 618.875 658.25Z"></path>
  </g>
  <g filter="url(#filter7_diii_37_1247)">
    <path fill="#0080FF" d="M315.125 557C299.589 557 287 544.411 287 528.875V495.125C287 479.589 299.589 467 315.125 467C330.661 467 343.25 479.589 343.25 495.125V528.875C343.25 544.411 330.661 557 315.125 557Z"></path>
    <path fill="url(#paint15_linear_37_1247)" d="M315.125 557C299.589 557 287 544.411 287 528.875V495.125C287 479.589 299.589 467 315.125 467C330.661 467 343.25 479.589 343.25 495.125V528.875C343.25 544.411 330.661 557 315.125 557Z"></path>
    <path fill="url(#paint16_linear_37_1247)" fill-opacity=".7" d="M315.125 557C299.589 557 287 544.411 287 528.875V495.125C287 479.589 299.589 467 315.125 467C330.661 467 343.25 479.589 343.25 495.125V528.875C343.25 544.411 330.661 557 315.125 557Z"></path>
  </g>
  <g filter="url(#filter8_diii_37_1247)">
    <path fill="#0080FF" d="M720.125 557C704.589 557 692 544.411 692 528.875V495.125C692 479.589 704.589 467 720.125 467C735.661 467 748.25 479.589 748.25 495.125V528.875C748.25 544.411 735.661 557 720.125 557Z"></path>
    <path fill="url(#paint17_linear_37_1247)" d="M720.125 557C704.589 557 692 544.411 692 528.875V495.125C692 479.589 704.589 467 720.125 467C735.661 467 748.25 479.589 748.25 495.125V528.875C748.25 544.411 735.661 557 720.125 557Z"></path>
    <path fill="url(#paint18_linear_37_1247)" fill-opacity=".7" d="M720.125 557C704.589 557 692 544.411 692 528.875V495.125C692 479.589 704.589 467 720.125 467C735.661 467 748.25 479.589 748.25 495.125V528.875C748.25 544.411 735.661 557 720.125 557Z"></path>
  </g>
  <defs>
    <linearGradient id="paint0_linear_37_1247" x1="512" x2="512" y1="167" y2="857" gradientUnits="userSpaceOnUse">
      <stop></stop>
      <stop offset="1" stop-color="#fff" stop-opacity="0"></stop>
    </linearGradient>
    <linearGradient id="paint1_linear_37_1247" x1="517.668" x2="517.668" y1="254.679" y2="357" gradientUnits="userSpaceOnUse">
      <stop offset=".005" stop-color="#fff" stop-opacity=".08"></stop>
      <stop offset=".085" stop-opacity=".08"></stop>
      <stop offset=".337" stop-color="#fff" stop-opacity=".1"></stop>
      <stop offset=".661" stop-color="#fff" stop-opacity=".1"></stop>
      <stop offset="1" stop-opacity=".1"></stop>
    </linearGradient>
    <linearGradient id="paint2_linear_37_1247" x1="517.625" x2="517.625" y1="287" y2="377" gradientUnits="userSpaceOnUse">
      <stop stop-color="#FFB200"></stop>
      <stop offset="1" stop-color="#fff" stop-opacity="0"></stop>
    </linearGradient>
    <linearGradient id="paint3_linear_37_1247" x1="517.668" x2="517.668" y1="338.027" y2="568.25" gradientUnits="userSpaceOnUse">
      <stop offset=".005" stop-color="#fff" stop-opacity=".08"></stop>
      <stop offset=".085" stop-opacity=".08"></stop>
      <stop offset=".337" stop-color="#fff" stop-opacity=".1"></stop>
      <stop offset=".661" stop-color="#fff" stop-opacity=".1"></stop>
      <stop offset="1" stop-opacity=".1"></stop>
    </linearGradient>
    <linearGradient id="paint4_linear_37_1247" x1="517.625" x2="517.625" y1="410.75" y2="613.25" gradientUnits="userSpaceOnUse">
      <stop stop-color="#FFB200"></stop>
      <stop offset="1" stop-color="#fff" stop-opacity="0"></stop>
    </linearGradient>
    <linearGradient id="paint5_linear_37_1247" x1="517.668" x2="517.668" y1="614.679" y2="717" gradientUnits="userSpaceOnUse">
      <stop offset=".005" stop-color="#fff" stop-opacity=".08"></stop>
      <stop offset=".085" stop-opacity=".08"></stop>
      <stop offset=".337" stop-color="#fff" stop-opacity=".1"></stop>
      <stop offset=".661" stop-color="#fff" stop-opacity=".1"></stop>
      <stop offset="1" stop-opacity=".1"></stop>
    </linearGradient>
    <linearGradient id="paint6_linear_37_1247" x1="517.625" x2="517.625" y1="647" y2="737" gradientUnits="userSpaceOnUse">
      <stop stop-color="#FFB200"></stop>
      <stop offset="1" stop-color="#fff" stop-opacity="0"></stop>
    </linearGradient>
    <linearGradient id="paint7_linear_37_1247" x1="416.418" x2="416.418" y1="524.679" y2="627" gradientUnits="userSpaceOnUse">
      <stop offset=".005" stop-color="#fff" stop-opacity=".08"></stop>
      <stop offset=".085" stop-opacity=".08"></stop>
      <stop offset=".337" stop-color="#fff" stop-opacity=".1"></stop>
      <stop offset=".661" stop-color="#fff" stop-opacity=".1"></stop>
      <stop offset="1" stop-opacity=".1"></stop>
    </linearGradient>
    <linearGradient id="paint8_linear_37_1247" x1="416.375" x2="416.375" y1="557" y2="647" gradientUnits="userSpaceOnUse">
      <stop stop-color="#FF002B"></stop>
      <stop offset="1" stop-color="#fff" stop-opacity="0"></stop>
    </linearGradient>
    <linearGradient id="paint9_linear_37_1247" x1="618.918" x2="618.918" y1="344.679" y2="447" gradientUnits="userSpaceOnUse">
      <stop offset=".005" stop-color="#fff" stop-opacity=".08"></stop>
      <stop offset=".085" stop-opacity=".08"></stop>
      <stop offset=".337" stop-color="#fff" stop-opacity=".1"></stop>
      <stop offset=".661" stop-color="#fff" stop-opacity=".1"></stop>
      <stop offset="1" stop-opacity=".1"></stop>
    </linearGradient>
    <linearGradient id="paint10_linear_37_1247" x1="618.875" x2="618.875" y1="377" y2="467" gradientUnits="userSpaceOnUse">
      <stop stop-color="#1AD44E"></stop>
      <stop offset="1" stop-color="#fff" stop-opacity="0"></stop>
    </linearGradient>
    <linearGradient id="paint11_linear_37_1247" x1="416.418" x2="416.418" y1="309.187" y2="488.25" gradientUnits="userSpaceOnUse">
      <stop offset=".005" stop-color="#fff" stop-opacity=".08"></stop>
      <stop offset=".085" stop-opacity=".08"></stop>
      <stop offset=".337" stop-color="#fff" stop-opacity=".1"></stop>
      <stop offset=".661" stop-color="#fff" stop-opacity=".1"></stop>
      <stop offset="1" stop-opacity=".1"></stop>
    </linearGradient>
    <linearGradient id="paint12_linear_37_1247" x1="416.375" x2="416.375" y1="365.75" y2="523.25" gradientUnits="userSpaceOnUse">
      <stop stop-color="#FF002B"></stop>
      <stop offset="1" stop-color="#fff" stop-opacity="0"></stop>
    </linearGradient>
    <linearGradient id="paint13_linear_37_1247" x1="618.918" x2="618.918" y1="444.187" y2="623.25" gradientUnits="userSpaceOnUse">
      <stop offset=".005" stop-color="#fff" stop-opacity=".08"></stop>
      <stop offset=".085" stop-opacity=".08"></stop>
      <stop offset=".337" stop-color="#fff" stop-opacity=".1"></stop>
      <stop offset=".661" stop-color="#fff" stop-opacity=".1"></stop>
      <stop offset="1" stop-opacity=".1"></stop>
    </linearGradient>
    <linearGradient id="paint14_linear_37_1247" x1="618.875" x2="618.875" y1="500.75" y2="658.25" gradientUnits="userSpaceOnUse">
      <stop stop-color="#1AD44E"></stop>
      <stop offset="1" stop-color="#fff" stop-opacity="0"></stop>
    </linearGradient>
    <linearGradient id="paint15_linear_37_1247" x1="315.168" x2="315.168" y1="434.679" y2="537" gradientUnits="userSpaceOnUse">
      <stop offset=".005" stop-color="#fff" stop-opacity=".08"></stop>
      <stop offset=".085" stop-opacity=".08"></stop>
      <stop offset=".337" stop-color="#fff" stop-opacity=".1"></stop>
      <stop offset=".661" stop-color="#fff" stop-opacity=".1"></stop>
      <stop offset="1" stop-opacity=".1"></stop>
    </linearGradient>
    <linearGradient id="paint16_linear_37_1247" x1="315.125" x2="315.125" y1="467" y2="557" gradientUnits="userSpaceOnUse">
      <stop stop-color="#0080FF"></stop>
      <stop offset="1" stop-color="#fff" stop-opacity="0"></stop>
    </linearGradient>
    <linearGradient id="paint17_linear_37_1247" x1="720.168" x2="720.168" y1="434.679" y2="537" gradientUnits="userSpaceOnUse">
      <stop offset=".005" stop-color="#fff" stop-opacity=".08"></stop>
      <stop offset=".085" stop-opacity=".08"></stop>
      <stop offset=".337" stop-color="#fff" stop-opacity=".1"></stop>
      <stop offset=".661" stop-color="#fff" stop-opacity=".1"></stop>
      <stop offset="1" stop-opacity=".1"></stop>
    </linearGradient>
    <linearGradient id="paint18_linear_37_1247" x1="720.125" x2="720.125" y1="467" y2="557" gradientUnits="userSpaceOnUse">
      <stop stop-color="#0080FF"></stop>
      <stop offset="1" stop-color="#fff" stop-opacity="0"></stop>
    </linearGradient>
    <filter id="filter0_diii_37_1247" width="96.25" height="143.656" x="469.5" y="266.806" color-interpolation-filters="sRGB" filterUnits="userSpaceOnUse">
      <feFlood flood-opacity="0" result="BackgroundImageFix"></feFlood>
      <feColorMatrix in="SourceAlpha" result="hardAlpha" values="0 0 0 0 0 0 0 0 0 0 0 0 0 0 0 0 0 0 127 0"></feColorMatrix>
      <feOffset dy="13.462"></feOffset>
      <feGaussianBlur stdDeviation="10"></feGaussianBlur>
      <feColorMatrix values="0 0 0 0 1 0 0 0 0 0.698039 0 0 0 0 0 0 0 0 0.6 0"></feColorMatrix>
      <feBlend in2="BackgroundImageFix" result="effect1_dropShadow_37_1247"></feBlend>
      <feBlend in="SourceGraphic" in2="effect1_dropShadow_37_1247" result="shape"></feBlend>
      <feColorMatrix in="SourceAlpha" result="hardAlpha" values="0 0 0 0 0 0 0 0 0 0 0 0 0 0 0 0 0 0 127 0"></feColorMatrix>
      <feOffset dy="-20.194"></feOffset>
      <feGaussianBlur stdDeviation="45"></feGaussianBlur>
      <feComposite in2="hardAlpha" k2="-1" k3="1" operator="arithmetic"></feComposite>
      <feColorMatrix values="0 0 0 0 1 0 0 0 0 0.698039 0 0 0 0 0 0 0 0 0.6 0"></feColorMatrix>
      <feBlend in2="shape" result="effect2_innerShadow_37_1247"></feBlend>
      <feColorMatrix in="SourceAlpha" result="hardAlpha" values="0 0 0 0 0 0 0 0 0 0 0 0 0 0 0 0 0 0 127 0"></feColorMatrix>
      <feOffset dy="-15"></feOffset>
      <feGaussianBlur stdDeviation="6.5"></feGaussianBlur>
      <feComposite in2="hardAlpha" k2="-1" k3="1" operator="arithmetic"></feComposite>
      <feColorMatrix values="0 0 0 0 1 0 0 0 0 1 0 0 0 0 1 0 0 0 0.3 0"></feColorMatrix>
      <feBlend in2="effect2_innerShadow_37_1247" result="effect3_innerShadow_37_1247"></feBlend>
      <feColorMatrix in="SourceAlpha" result="hardAlpha" values="0 0 0 0 0 0 0 0 0 0 0 0 0 0 0 0 0 0 127 0"></feColorMatrix>
      <feOffset dy="10"></feOffset>
      <feGaussianBlur stdDeviation="7"></feGaussianBlur>
      <feComposite in2="hardAlpha" k2="-1" k3="1" operator="arithmetic"></feComposite>
      <feColorMatrix values="0 0 0 0 1 0 0 0 0 1 0 0 0 0 1 0 0 0 0.25 0"></feColorMatrix>
      <feBlend in2="effect3_innerShadow_37_1247" result="effect4_innerShadow_37_1247"></feBlend>
    </filter>
    <filter id="filter1_diii_37_1247" width="96.25" height="256.156" x="469.5" y="390.556" color-interpolation-filters="sRGB" filterUnits="userSpaceOnUse">
      <feFlood flood-opacity="0" result="BackgroundImageFix"></feFlood>
      <feColorMatrix in="SourceAlpha" result="hardAlpha" values="0 0 0 0 0 0 0 0 0 0 0 0 0 0 0 0 0 0 127 0"></feColorMatrix>
      <feOffset dy="13.462"></feOffset>
      <feGaussianBlur stdDeviation="10"></feGaussianBlur>
      <feColorMatrix values="0 0 0 0 1 0 0 0 0 0.698039 0 0 0 0 0 0 0 0 0.6 0"></feColorMatrix>
      <feBlend in2="BackgroundImageFix" result="effect1_dropShadow_37_1247"></feBlend>
      <feBlend in="SourceGraphic" in2="effect1_dropShadow_37_1247" result="shape"></feBlend>
      <feColorMatrix in="SourceAlpha" result="hardAlpha" values="0 0 0 0 0 0 0 0 0 0 0 0 0 0 0 0 0 0 127 0"></feColorMatrix>
      <feOffset dy="-20.194"></feOffset>
      <feGaussianBlur stdDeviation="45"></feGaussianBlur>
      <feComposite in2="hardAlpha" k2="-1" k3="1" operator="arithmetic"></feComposite>
      <feColorMatrix values="0 0 0 0 1 0 0 0 0 0.698039 0 0 0 0 0 0 0 0 0.6 0"></feColorMatrix>
      <feBlend in2="shape" result="effect2_innerShadow_37_1247"></feBlend>
      <feColorMatrix in="SourceAlpha" result="hardAlpha" values="0 0 0 0 0 0 0 0 0 0 0 0 0 0 0 0 0 0 127 0"></feColorMatrix>
      <feOffset dy="-15"></feOffset>
      <feGaussianBlur stdDeviation="6.5"></feGaussianBlur>
      <feComposite in2="hardAlpha" k2="-1" k3="1" operator="arithmetic"></feComposite>
      <feColorMatrix values="0 0 0 0 1 0 0 0 0 1 0 0 0 0 1 0 0 0 0.3 0"></feColorMatrix>
      <feBlend in2="effect2_innerShadow_37_1247" result="effect3_innerShadow_37_1247"></feBlend>
      <feColorMatrix in="SourceAlpha" result="hardAlpha" values="0 0 0 0 0 0 0 0 0 0 0 0 0 0 0 0 0 0 127 0"></feColorMatrix>
      <feOffset dy="10"></feOffset>
      <feGaussianBlur stdDeviation="7"></feGaussianBlur>
      <feComposite in2="hardAlpha" k2="-1" k3="1" operator="arithmetic"></feComposite>
      <feColorMatrix values="0 0 0 0 1 0 0 0 0 1 0 0 0 0 1 0 0 0 0.25 0"></feColorMatrix>
      <feBlend in2="effect3_innerShadow_37_1247" result="effect4_innerShadow_37_1247"></feBlend>
    </filter>
    <filter id="filter2_diii_37_1247" width="96.25" height="143.656" x="469.5" y="626.806" color-interpolation-filters="sRGB" filterUnits="userSpaceOnUse">
      <feFlood flood-opacity="0" result="BackgroundImageFix"></feFlood>
      <feColorMatrix in="SourceAlpha" result="hardAlpha" values="0 0 0 0 0 0 0 0 0 0 0 0 0 0 0 0 0 0 127 0"></feColorMatrix>
      <feOffset dy="13.462"></feOffset>
      <feGaussianBlur stdDeviation="10"></feGaussianBlur>
      <feColorMatrix values="0 0 0 0 1 0 0 0 0 0.698039 0 0 0 0 0 0 0 0 0.6 0"></feColorMatrix>
      <feBlend in2="BackgroundImageFix" result="effect1_dropShadow_37_1247"></feBlend>
      <feBlend in="SourceGraphic" in2="effect1_dropShadow_37_1247" result="shape"></feBlend>
      <feColorMatrix in="SourceAlpha" result="hardAlpha" values="0 0 0 0 0 0 0 0 0 0 0 0 0 0 0 0 0 0 127 0"></feColorMatrix>
      <feOffset dy="-20.194"></feOffset>
      <feGaussianBlur stdDeviation="45"></feGaussianBlur>
      <feComposite in2="hardAlpha" k2="-1" k3="1" operator="arithmetic"></feComposite>
      <feColorMatrix values="0 0 0 0 1 0 0 0 0 0.698039 0 0 0 0 0 0 0 0 0.6 0"></feColorMatrix>
      <feBlend in2="shape" result="effect2_innerShadow_37_1247"></feBlend>
      <feColorMatrix in="SourceAlpha" result="hardAlpha" values="0 0 0 0 0 0 0 0 0 0 0 0 0 0 0 0 0 0 127 0"></feColorMatrix>
      <feOffset dy="-15"></feOffset>
      <feGaussianBlur stdDeviation="6.5"></feGaussianBlur>
      <feComposite in2="hardAlpha" k2="-1" k3="1" operator="arithmetic"></feComposite>
      <feColorMatrix values="0 0 0 0 1 0 0 0 0 1 0 0 0 0 1 0 0 0 0.3 0"></feColorMatrix>
      <feBlend in2="effect2_innerShadow_37_1247" result="effect3_innerShadow_37_1247"></feBlend>
      <feColorMatrix in="SourceAlpha" result="hardAlpha" values="0 0 0 0 0 0 0 0 0 0 0 0 0 0 0 0 0 0 127 0"></feColorMatrix>
      <feOffset dy="10"></feOffset>
      <feGaussianBlur stdDeviation="7"></feGaussianBlur>
      <feComposite in2="hardAlpha" k2="-1" k3="1" operator="arithmetic"></feComposite>
      <feColorMatrix values="0 0 0 0 1 0 0 0 0 1 0 0 0 0 1 0 0 0 0.25 0"></feColorMatrix>
      <feBlend in2="effect3_innerShadow_37_1247" result="effect4_innerShadow_37_1247"></feBlend>
    </filter>
    <filter id="filter3_diii_37_1247" width="96.25" height="143.656" x="368.25" y="536.806" color-interpolation-filters="sRGB" filterUnits="userSpaceOnUse">
      <feFlood flood-opacity="0" result="BackgroundImageFix"></feFlood>
      <feColorMatrix in="SourceAlpha" result="hardAlpha" values="0 0 0 0 0 0 0 0 0 0 0 0 0 0 0 0 0 0 127 0"></feColorMatrix>
      <feOffset dy="13.462"></feOffset>
      <feGaussianBlur stdDeviation="10"></feGaussianBlur>
      <feColorMatrix values="0 0 0 0 1 0 0 0 0 0 0 0 0 0 0.168627 0 0 0 0.6 0"></feColorMatrix>
      <feBlend in2="BackgroundImageFix" result="effect1_dropShadow_37_1247"></feBlend>
      <feBlend in="SourceGraphic" in2="effect1_dropShadow_37_1247" result="shape"></feBlend>
      <feColorMatrix in="SourceAlpha" result="hardAlpha" values="0 0 0 0 0 0 0 0 0 0 0 0 0 0 0 0 0 0 127 0"></feColorMatrix>
      <feOffset dy="-20.194"></feOffset>
      <feGaussianBlur stdDeviation="45"></feGaussianBlur>
      <feComposite in2="hardAlpha" k2="-1" k3="1" operator="arithmetic"></feComposite>
      <feColorMatrix values="0 0 0 0 1 0 0 0 0 0 0 0 0 0 0.168627 0 0 0 0.6 0"></feColorMatrix>
      <feBlend in2="shape" result="effect2_innerShadow_37_1247"></feBlend>
      <feColorMatrix in="SourceAlpha" result="hardAlpha" values="0 0 0 0 0 0 0 0 0 0 0 0 0 0 0 0 0 0 127 0"></feColorMatrix>
      <feOffset dx="8" dy="15"></feOffset>
      <feGaussianBlur stdDeviation="6.5"></feGaussianBlur>
      <feComposite in2="hardAlpha" k2="-1" k3="1" operator="arithmetic"></feComposite>
      <feColorMatrix values="0 0 0 0 1 0 0 0 0 0 0 0 0 0 0.168627 0 0 0 0.3 0"></feColorMatrix>
      <feBlend in2="effect2_innerShadow_37_1247" result="effect3_innerShadow_37_1247"></feBlend>
      <feColorMatrix in="SourceAlpha" result="hardAlpha" values="0 0 0 0 0 0 0 0 0 0 0 0 0 0 0 0 0 0 127 0"></feColorMatrix>
      <feOffset dy="-10"></feOffset>
      <feGaussianBlur stdDeviation="7"></feGaussianBlur>
      <feComposite in2="hardAlpha" k2="-1" k3="1" operator="arithmetic"></feComposite>
      <feColorMatrix values="0 0 0 0 1 0 0 0 0 1 0 0 0 0 1 0 0 0 0.25 0"></feColorMatrix>
      <feBlend in2="effect3_innerShadow_37_1247" result="effect4_innerShadow_37_1247"></feBlend>
    </filter>
    <filter id="filter4_diii_37_1247" width="96.25" height="143.656" x="570.75" y="356.806" color-interpolation-filters="sRGB" filterUnits="userSpaceOnUse">
      <feFlood flood-opacity="0" result="BackgroundImageFix"></feFlood>
      <feColorMatrix in="SourceAlpha" result="hardAlpha" values="0 0 0 0 0 0 0 0 0 0 0 0 0 0 0 0 0 0 127 0"></feColorMatrix>
      <feOffset dy="13.462"></feOffset>
      <feGaussianBlur stdDeviation="10"></feGaussianBlur>
      <feColorMatrix values="0 0 0 0 0.101961 0 0 0 0 0.831373 0 0 0 0 0.305882 0 0 0 0.6 0"></feColorMatrix>
      <feBlend in2="BackgroundImageFix" result="effect1_dropShadow_37_1247"></feBlend>
      <feBlend in="SourceGraphic" in2="effect1_dropShadow_37_1247" result="shape"></feBlend>
      <feColorMatrix in="SourceAlpha" result="hardAlpha" values="0 0 0 0 0 0 0 0 0 0 0 0 0 0 0 0 0 0 127 0"></feColorMatrix>
      <feOffset dy="-20.194"></feOffset>
      <feGaussianBlur stdDeviation="45"></feGaussianBlur>
      <feComposite in2="hardAlpha" k2="-1" k3="1" operator="arithmetic"></feComposite>
      <feColorMatrix values="0 0 0 0 0.101961 0 0 0 0 0.831373 0 0 0 0 0.305882 0 0 0 0.6 0"></feColorMatrix>
      <feBlend in2="shape" result="effect2_innerShadow_37_1247"></feBlend>
      <feColorMatrix in="SourceAlpha" result="hardAlpha" values="0 0 0 0 0 0 0 0 0 0 0 0 0 0 0 0 0 0 127 0"></feColorMatrix>
      <feOffset dy="-15"></feOffset>
      <feGaussianBlur stdDeviation="6.5"></feGaussianBlur>
      <feComposite in2="hardAlpha" k2="-1" k3="1" operator="arithmetic"></feComposite>
      <feColorMatrix values="0 0 0 0 1 0 0 0 0 1 0 0 0 0 1 0 0 0 0.3 0"></feColorMatrix>
      <feBlend in2="effect2_innerShadow_37_1247" result="effect3_innerShadow_37_1247"></feBlend>
      <feColorMatrix in="SourceAlpha" result="hardAlpha" values="0 0 0 0 0 0 0 0 0 0 0 0 0 0 0 0 0 0 127 0"></feColorMatrix>
      <feOffset dy="10"></feOffset>
      <feGaussianBlur stdDeviation="7"></feGaussianBlur>
      <feComposite in2="hardAlpha" k2="-1" k3="1" operator="arithmetic"></feComposite>
      <feColorMatrix values="0 0 0 0 1 0 0 0 0 1 0 0 0 0 1 0 0 0 0.25 0"></feColorMatrix>
      <feBlend in2="effect3_innerShadow_37_1247" result="effect4_innerShadow_37_1247"></feBlend>
    </filter>
    <filter id="filter5_diii_37_1247" width="96.25" height="211.156" x="368.25" y="345.556" color-interpolation-filters="sRGB" filterUnits="userSpaceOnUse">
      <feFlood flood-opacity="0" result="BackgroundImageFix"></feFlood>
      <feColorMatrix in="SourceAlpha" result="hardAlpha" values="0 0 0 0 0 0 0 0 0 0 0 0 0 0 0 0 0 0 127 0"></feColorMatrix>
      <feOffset dy="13.462"></feOffset>
      <feGaussianBlur stdDeviation="10"></feGaussianBlur>
      <feColorMatrix values="0 0 0 0 1 0 0 0 0 0 0 0 0 0 0.168627 0 0 0 0.6 0"></feColorMatrix>
      <feBlend in2="BackgroundImageFix" result="effect1_dropShadow_37_1247"></feBlend>
      <feBlend in="SourceGraphic" in2="effect1_dropShadow_37_1247" result="shape"></feBlend>
      <feColorMatrix in="SourceAlpha" result="hardAlpha" values="0 0 0 0 0 0 0 0 0 0 0 0 0 0 0 0 0 0 127 0"></feColorMatrix>
      <feOffset dy="-20.194"></feOffset>
      <feGaussianBlur stdDeviation="45"></feGaussianBlur>
      <feComposite in2="hardAlpha" k2="-1" k3="1" operator="arithmetic"></feComposite>
      <feColorMatrix values="0 0 0 0 1 0 0 0 0 0 0 0 0 0 0.168627 0 0 0 0.6 0"></feColorMatrix>
      <feBlend in2="shape" result="effect2_innerShadow_37_1247"></feBlend>
      <feColorMatrix in="SourceAlpha" result="hardAlpha" values="0 0 0 0 0 0 0 0 0 0 0 0 0 0 0 0 0 0 127 0"></feColorMatrix>
      <feOffset dx="8" dy="15"></feOffset>
      <feGaussianBlur stdDeviation="6.5"></feGaussianBlur>
      <feComposite in2="hardAlpha" k2="-1" k3="1" operator="arithmetic"></feComposite>
      <feColorMatrix values="0 0 0 0 1 0 0 0 0 0 0 0 0 0 0.168627 0 0 0 0.3 0"></feColorMatrix>
      <feBlend in2="effect2_innerShadow_37_1247" result="effect3_innerShadow_37_1247"></feBlend>
      <feColorMatrix in="SourceAlpha" result="hardAlpha" values="0 0 0 0 0 0 0 0 0 0 0 0 0 0 0 0 0 0 127 0"></feColorMatrix>
      <feOffset dy="-10"></feOffset>
      <feGaussianBlur stdDeviation="7"></feGaussianBlur>
      <feComposite in2="hardAlpha" k2="-1" k3="1" operator="arithmetic"></feComposite>
      <feColorMatrix values="0 0 0 0 1 0 0 0 0 1 0 0 0 0 1 0 0 0 0.25 0"></feColorMatrix>
      <feBlend in2="effect3_innerShadow_37_1247" result="effect4_innerShadow_37_1247"></feBlend>
    </filter>
    <filter id="filter6_diii_37_1247" width="96.25" height="211.156" x="570.75" y="480.556" color-interpolation-filters="sRGB" filterUnits="userSpaceOnUse">
      <feFlood flood-opacity="0" result="BackgroundImageFix"></feFlood>
      <feColorMatrix in="SourceAlpha" result="hardAlpha" values="0 0 0 0 0 0 0 0 0 0 0 0 0 0 0 0 0 0 127 0"></feColorMatrix>
      <feOffset dy="13.462"></feOffset>
      <feGaussianBlur stdDeviation="10"></feGaussianBlur>
      <feColorMatrix values="0 0 0 0 0.101961 0 0 0 0 0.831373 0 0 0 0 0.305882 0 0 0 0.6 0"></feColorMatrix>
      <feBlend in2="BackgroundImageFix" result="effect1_dropShadow_37_1247"></feBlend>
      <feBlend in="SourceGraphic" in2="effect1_dropShadow_37_1247" result="shape"></feBlend>
      <feColorMatrix in="SourceAlpha" result="hardAlpha" values="0 0 0 0 0 0 0 0 0 0 0 0 0 0 0 0 0 0 127 0"></feColorMatrix>
      <feOffset dy="-20.194"></feOffset>
      <feGaussianBlur stdDeviation="45"></feGaussianBlur>
      <feComposite in2="hardAlpha" k2="-1" k3="1" operator="arithmetic"></feComposite>
      <feColorMatrix values="0 0 0 0 0.101961 0 0 0 0 0.831373 0 0 0 0 0.305882 0 0 0 0.6 0"></feColorMatrix>
      <feBlend in2="shape" result="effect2_innerShadow_37_1247"></feBlend>
      <feColorMatrix in="SourceAlpha" result="hardAlpha" values="0 0 0 0 0 0 0 0 0 0 0 0 0 0 0 0 0 0 127 0"></feColorMatrix>
      <feOffset dy="-15"></feOffset>
      <feGaussianBlur stdDeviation="6.5"></feGaussianBlur>
      <feComposite in2="hardAlpha" k2="-1" k3="1" operator="arithmetic"></feComposite>
      <feColorMatrix values="0 0 0 0 1 0 0 0 0 1 0 0 0 0 1 0 0 0 0.3 0"></feColorMatrix>
      <feBlend in2="effect2_innerShadow_37_1247" result="effect3_innerShadow_37_1247"></feBlend>
      <feColorMatrix in="SourceAlpha" result="hardAlpha" values="0 0 0 0 0 0 0 0 0 0 0 0 0 0 0 0 0 0 127 0"></feColorMatrix>
      <feOffset dy="10"></feOffset>
      <feGaussianBlur stdDeviation="7"></feGaussianBlur>
      <feComposite in2="hardAlpha" k2="-1" k3="1" operator="arithmetic"></feComposite>
      <feColorMatrix values="0 0 0 0 1 0 0 0 0 1 0 0 0 0 1 0 0 0 0.25 0"></feColorMatrix>
      <feBlend in2="effect3_innerShadow_37_1247" result="effect4_innerShadow_37_1247"></feBlend>
    </filter>
    <filter id="filter7_diii_37_1247" width="96.25" height="133.462" x="267" y="457" color-interpolation-filters="sRGB" filterUnits="userSpaceOnUse">
      <feFlood flood-opacity="0" result="BackgroundImageFix"></feFlood>
      <feColorMatrix in="SourceAlpha" result="hardAlpha" values="0 0 0 0 0 0 0 0 0 0 0 0 0 0 0 0 0 0 127 0"></feColorMatrix>
      <feOffset dy="13.462"></feOffset>
      <feGaussianBlur stdDeviation="10"></feGaussianBlur>
      <feColorMatrix values="0 0 0 0 0 0 0 0 0 0.501961 0 0 0 0 1 0 0 0 0.6 0"></feColorMatrix>
      <feBlend in2="BackgroundImageFix" result="effect1_dropShadow_37_1247"></feBlend>
      <feBlend in="SourceGraphic" in2="effect1_dropShadow_37_1247" result="shape"></feBlend>
      <feColorMatrix in="SourceAlpha" result="hardAlpha" values="0 0 0 0 0 0 0 0 0 0 0 0 0 0 0 0 0 0 127 0"></feColorMatrix>
      <feOffset dy="20.19"></feOffset>
      <feGaussianBlur stdDeviation="45"></feGaussianBlur>
      <feComposite in2="hardAlpha" k2="-1" k3="1" operator="arithmetic"></feComposite>
      <feColorMatrix values="0 0 0 0 0 0 0 0 0 0.501961 0 0 0 0 1 0 0 0 0.6 0"></feColorMatrix>
      <feBlend in2="shape" result="effect2_innerShadow_37_1247"></feBlend>
      <feColorMatrix in="SourceAlpha" result="hardAlpha" values="0 0 0 0 0 0 0 0 0 0 0 0 0 0 0 0 0 0 127 0"></feColorMatrix>
      <feOffset dy="15"></feOffset>
      <feGaussianBlur stdDeviation="6.5"></feGaussianBlur>
      <feComposite in2="hardAlpha" k2="-1" k3="1" operator="arithmetic"></feComposite>
      <feColorMatrix values="0 0 0 0 1 0 0 0 0 1 0 0 0 0 1 0 0 0 0.3 0"></feColorMatrix>
      <feBlend in2="effect2_innerShadow_37_1247" result="effect3_innerShadow_37_1247"></feBlend>
      <feColorMatrix in="SourceAlpha" result="hardAlpha" values="0 0 0 0 0 0 0 0 0 0 0 0 0 0 0 0 0 0 127 0"></feColorMatrix>
      <feOffset dy="-10"></feOffset>
      <feGaussianBlur stdDeviation="7"></feGaussianBlur>
      <feComposite in2="hardAlpha" k2="-1" k3="1" operator="arithmetic"></feComposite>
      <feColorMatrix values="0 0 0 0 1 0 0 0 0 1 0 0 0 0 1 0 0 0 0.25 0"></feColorMatrix>
      <feBlend in2="effect3_innerShadow_37_1247" result="effect4_innerShadow_37_1247"></feBlend>
    </filter>
    <filter id="filter8_diii_37_1247" width="96.25" height="133.462" x="672" y="457" color-interpolation-filters="sRGB" filterUnits="userSpaceOnUse">
      <feFlood flood-opacity="0" result="BackgroundImageFix"></feFlood>
      <feColorMatrix in="SourceAlpha" result="hardAlpha" values="0 0 0 0 0 0 0 0 0 0 0 0 0 0 0 0 0 0 127 0"></feColorMatrix>
      <feOffset dy="13.462"></feOffset>
      <feGaussianBlur stdDeviation="10"></feGaussianBlur>
      <feColorMatrix values="0 0 0 0 0 0 0 0 0 0.501961 0 0 0 0 1 0 0 0 0.6 0"></feColorMatrix>
      <feBlend in2="BackgroundImageFix" result="effect1_dropShadow_37_1247"></feBlend>
      <feBlend in="SourceGraphic" in2="effect1_dropShadow_37_1247" result="shape"></feBlend>
      <feColorMatrix in="SourceAlpha" result="hardAlpha" values="0 0 0 0 0 0 0 0 0 0 0 0 0 0 0 0 0 0 127 0"></feColorMatrix>
      <feOffset dy="20.19"></feOffset>
      <feGaussianBlur stdDeviation="45"></feGaussianBlur>
      <feComposite in2="hardAlpha" k2="-1" k3="1" operator="arithmetic"></feComposite>
      <feColorMatrix values="0 0 0 0 0 0 0 0 0 0.501961 0 0 0 0 1 0 0 0 0.6 0"></feColorMatrix>
      <feBlend in2="shape" result="effect2_innerShadow_37_1247"></feBlend>
      <feColorMatrix in="SourceAlpha" result="hardAlpha" values="0 0 0 0 0 0 0 0 0 0 0 0 0 0 0 0 0 0 127 0"></feColorMatrix>
      <feOffset dy="15"></feOffset>
      <feGaussianBlur stdDeviation="6.5"></feGaussianBlur>
      <feComposite in2="hardAlpha" k2="-1" k3="1" operator="arithmetic"></feComposite>
      <feColorMatrix values="0 0 0 0 1 0 0 0 0 1 0 0 0 0 1 0 0 0 0.3 0"></feColorMatrix>
      <feBlend in2="effect2_innerShadow_37_1247" result="effect3_innerShadow_37_1247"></feBlend>
      <feColorMatrix in="SourceAlpha" result="hardAlpha" values="0 0 0 0 0 0 0 0 0 0 0 0 0 0 0 0 0 0 127 0"></feColorMatrix>
      <feOffset dy="-10"></feOffset>
      <feGaussianBlur stdDeviation="7"></feGaussianBlur>
      <feComposite in2="hardAlpha" k2="-1" k3="1" operator="arithmetic"></feComposite>
      <feColorMatrix values="0 0 0 0 1 0 0 0 0 1 0 0 0 0 1 0 0 0 0.25 0"></feColorMatrix>
      <feBlend in2="effect3_innerShadow_37_1247" result="effect4_innerShadow_37_1247"></feBlend>
    </filter>
  </defs>
</svg>
